#!OML:ASF C:\ViconDB\ViconDB\414\Spring2016\041811\Spring2016.ASF
:FULLY-SPECIFIED
:DEGREES
538
root 13.8348 18.8647 -15.9106 896.442 -4.69032 180.444
lowerback 4.94867 -9.22291 -4.92409
upperback 1.71212 -12.6534 2.3232
thorax 0.627421 -6.45949 5.45836
lowerneck -19.0272 12.8802 2.45725
upperneck 31.2275 18.9753 2.51738
head 13.6746 9.32897 3.9177
rclavicle 4.90004e-014 7.55382e-015
rhumerus -61.0824 -18.4205 -77.1424
rradius 35.0376
rwrist 43.2909
rhand -27.1764 -6.44921
rfingers 7.12502
rthumb -0.590481 -36.4281
lclavicle 4.90004e-014 7.55382e-015
lhumerus -47.9766 -69.112 147.302
lradius 66.5391
lwrist -17.1942
lhand -6.14986 -2.3328
lfingers 7.12502
lthumb 19.6883 26.6902
rfemur -24.326 -199.955 4.59095
rtibia 40.4985
rfoot -15.5062 -56.1426
rtoes -0.968762
lfemur -7.62737 20.3759 -12.5509
ltibia 23.8203
lfoot -22.4985 34.3216
ltoes 0.991847
539
root 13.8726 18.8615 -15.8784 896.348 -4.69992 180.776
lowerback 4.91268 -8.90183 -4.6922
upperback 1.66689 -12.2177 2.51328
thorax 0.536924 -6.23986 5.53446
lowerneck -18.9879 12.423 1.94506
upperneck 31.291 18.4607 2.65191
head 13.6223 9.08891 3.95015
rclavicle -2.1757e-013 3.37934e-014
rhumerus -60.9604 -18.2573 -77.1387
rradius 34.8358
rwrist 45.0382
rhand -25.004 -5.51659
rfingers 7.12502
rthumb 1.50774 -35.491
lclavicle -2.1757e-013 3.37934e-014
lhumerus -49.2903 -68.6419 147.89
lradius 67.073
lwrist -16.2314
lhand -4.69006 -2.14228
lfingers 7.12502
lthumb 21.0912 26.7307
rfemur -25.2549 -199.901 4.91648
rtibia 40.5983
rfoot -14.1817 -55.5969
rtoes -1.47762
lfemur -7.68357 19.961 -12.103
ltibia 23.8087
lfoot -22.8208 34.6508
ltoes 1.22838
540
root 13.9164 18.8489 -15.8542 896.087 -4.7609 180.342
lowerback 4.9793 -8.57208 -5.27606
upperback 1.69146 -11.801 2.41337
thorax 0.567987 -6.03438 5.74725
lowerneck -18.7138 12.0976 1.79002
upperneck 31.1592 18.0544 2.62005
head 13.5019 8.91723 3.85957
rclavicle -2.19657e-014 1.19271e-015
rhumerus -60.8177 -18.0284 -77.3748
rradius 34.6977
rwrist 46.0964
rhand -23.2447 -5.09122
rfingers 7.12502
rthumb 3.20675 -35.0469
lclavicle -2.19657e-014 1.19271e-015
lhumerus -49.4001 -67.8163 147.069
lradius 67.2587
lwrist -16.1329
lhand -3.42049 -2.1672
lfingers 7.12502
lthumb 22.3104 26.5648
rfemur -26.3969 -200.051 4.33047
rtibia 40.6244
rfoot -13.1491 -55.3212
rtoes -1.26283
lfemur -7.51718 19.6701 -12.3983
ltibia 23.934
lfoot -22.8079 34.8095
ltoes 1.25568
541
root 13.9615 18.8358 -15.8349 895.947 -4.94963 180.869
lowerback 4.79511 -8.32698 -4.83981
upperback 1.65814 -11.4501 2.59241
thorax 0.537867 -5.85666 5.67786
lowerneck -18.3717 11.7123 1.76861
upperneck 31.1391 17.635 2.37534
head 13.4574 8.72837 3.68091
rclavicle 2.045e-014 1.19271e-014
rhumerus -60.5737 -17.3225 -78.017
rradius 34.567
rwrist 46.0774
rhand -21.879 -5.25962
rfingers 7.12502
rthumb 4.52556 -35.1913
lclavicle 2.045e-014 1.19271e-014
lhumerus -49.0987 -66.85 145.837
lradius 67.2132
lwrist -15.3909
lhand -2.70642 -1.75572
lfingers 7.12502
lthumb 22.9957 26.8926
rfemur -27.2369 -200.655 4.88674
rtibia 40.4534
rfoot -13.2164 -55.0903
rtoes -1.40641
lfemur -7.69844 19.4232 -11.664
ltibia 24.2179
lfoot -22.7869 34.7825
ltoes 1.36941
542
root 14.0014 18.8095 -15.7965 896.083 -5.12556 180.035
lowerback 4.59036 -7.98701 -5.74089
upperback 1.56033 -11.0101 2.53209
thorax 0.648889 -5.63776 6.06741
lowerneck -18.2889 11.3327 1.19836
upperneck 31.2041 17.2362 2.57673
head 13.3871 8.5423 3.7658
rclavicle 9.69075e-015 -7.55382e-015
rhumerus -60.3658 -16.9822 -78.154
rradius 34.5522
rwrist 46.3586
rhand -21.0436 -5.605
rfingers 7.12502
rthumb 5.33226 -35.5179
lclavicle 9.69075e-015 -7.55382e-015
lhumerus -47.5956 -66.1265 143.575
lradius 66.8087
lwrist -15.6459
lhand -2.58027 -1.65156
lfingers 7.12502
lthumb 23.1167 26.9816
rfemur -27.7539 -201.647 3.94394
rtibia 40.2508
rfoot -13.9196 -55.4911
rtoes -1.84006
lfemur -8.10416 18.9738 -12.6137
ltibia 24.4706
lfoot -23.081 35.0782
ltoes 1.53723
543
root 14.0599 18.7793 -15.785 895.885 -5.82963 180.225
lowerback 4.52613 -7.82762 -5.57081
upperback 1.52209 -10.7884 2.64161
thorax 0.601859 -5.52445 6.08647
lowerneck -18.3237 10.9012 0.746523
upperneck 31.4631 16.8036 2.68194
head 13.4523 8.33625 3.82534
rclavicle 6.45553e-014 7.95139e-016
rhumerus -60.2683 -16.4447 -78.5201
rradius 34.5795
rwrist 45.8645
rhand -19.9194 -5.93773
rfingers 7.12502
rthumb 6.41761 -35.8205
lclavicle 6.45553e-014 7.95139e-016
lhumerus -46.381 -65.3375 141.506
lradius 66.3347
lwrist -15.3251
lhand -3.80172 -0.68266
lfingers 7.12502
lthumb 21.9444 28.0927
rfemur -28.5775 -202.925 4.00707
rtibia 39.806
rfoot -15.0959 -55.5922
rtoes -2.72676
lfemur -8.37427 18.7507 -12.2184
ltibia 24.9448
lfoot -22.7413 34.6431
ltoes 1.56045
544
root 14.121 18.7733 -15.7635 895.692 -6.47224 180.448
lowerback 4.60417 -7.66709 -5.63814
upperback 1.43086 -10.5859 2.86046
thorax 0.488845 -5.42217 6.36968
lowerneck -18.111 10.514 0.283582
upperneck 31.6054 16.4184 2.8194
head 13.4136 8.16602 3.87683
rclavicle -1.3418e-014 -1.59028e-014
rhumerus -60.2933 -16.0578 -78.5216
rradius 34.7104
rwrist 45.6591
rhand -19.3956 -6.59681
rfingers 7.12502
rthumb 6.92332 -36.4636
lclavicle -1.3418e-014 -1.59028e-014
lhumerus -44.3482 -64.0663 138.831
lradius 65.5472
lwrist -14.5275
lhand -4.48141 -0.138866
lfingers 7.12502
lthumb 21.2916 28.7116
rfemur -29.1286 -204.151 4.17808
rtibia 39.3962
rfoot -17.3838 -54.5788
rtoes -5.85079
lfemur -8.61566 18.5001 -11.8133
ltibia 25.2521
lfoot -22.3715 34.3136
ltoes 1.57704
545
root 14.1727 18.7642 -15.7275 895.9 -6.56368 181.147
lowerback 4.20767 -7.32847 -4.75818
upperback 1.29115 -10.0838 3.12188
thorax 0.382061 -5.16066 6.12751
lowerneck -17.9708 10.1131 -0.0133533
upperneck 31.6467 15.998 2.76171
head 13.3895 7.9655 3.82911
rclavicle 4.03284e-014 1.35174e-014
rhumerus -60.175 -15.8375 -78.7009
rradius 35.0558
rwrist 43.3364
rhand -17.7108 -7.12065
rfingers 7.12502
rthumb 8.54947 -36.9276
lclavicle 4.03284e-014 1.35174e-014
lhumerus -42.1947 -62.9332 135.965
lradius 64.4377
lwrist -14.0379
lhand -5.68942 -0.0471781
lfingers 7.12502
lthumb 20.1309 28.9298
rfemur -28.6461 -205.246 5.11494
rtibia 38.825
rfoot -17.954 -53.3948
rtoes -5.66224
lfemur -9.28686 18.717 -11.043
ltibia 25.4628
lfoot -21.9369 34.1657
ltoes 1.64955
546
root 14.2383 18.7581 -15.703 896 -6.9909 180.877
lowerback 3.93386 -7.06828 -5.16902
upperback 1.19564 -9.73019 3.14485
thorax 0.457831 -4.98182 6.34247
lowerneck -18.0252 9.64935 -0.704999
upperneck 31.8891 15.4902 3.14278
head 13.4081 7.73831 4.01568
rclavicle 3.99681e-014 -3.18055e-015
rhumerus -60.2696 -16.1675 -78.0031
rradius 34.6919
rwrist 45.1529
rhand -18.371 -7.25643
rfingers 7.12502
rthumb 7.91228 -37.0884
lclavicle 3.99681e-014 -3.18055e-015
lhumerus -39.8594 -61.6811 133.028
lradius 63.0874
lwrist -13.3423
lhand -7.26299 0.52349
lfingers 7.12502
lthumb 18.6179 29.6525
rfemur -28.3845 -206.19 4.85122
rtibia 38.3899
rfoot -18.2881 -51.5403
rtoes -8.3199
lfemur -9.56413 18.8696 -11.234
ltibia 25.3736
lfoot -21.2547 33.8565
ltoes 1.54001
547
root 14.3351 18.7508 -15.6913 895.325 -7.3174 180.956
lowerback 4.20058 -6.68603 -5.60429
upperback 1.41238 -9.26207 3.23145
thorax 0.550016 -4.76734 6.69235
lowerneck -17.8758 9.28981 -1.00181
upperneck 31.8666 15.0868 3.161
head 13.3507 7.55433 3.9945
rclavicle -4.61429e-014 1.66979e-014
rhumerus -60.1627 -16.1337 -77.8171
rradius 34.1588
rwrist 46.4792
rhand -20.0091 -7.95358
rfingers 7.12502
rthumb 6.33106 -37.839
lclavicle -4.61429e-014 1.66979e-014
lhumerus -37.3096 -60.0463 129.982
lradius 61.4264
lwrist -12.7287
lhand -9.02275 0.807787
lfingers 7.12502
lthumb 16.9245 30.0904
rfemur -28.7974 -206.636 4.83437
rtibia 37.9773
rfoot -19.7005 -49.6427
rtoes -13.4688
lfemur -8.90009 19.4671 -10.5553
ltibia 25.3386
lfoot -20.3606 33.0556
ltoes 1.41907
548
root 14.4278 18.7481 -15.6492 894.567 -7.17967 181.312
lowerback 4.94545 -6.13557 -5.73905
upperback 1.55959 -8.59231 3.46372
thorax 0.240587 -4.43999 7.1014
lowerneck -17.8741 8.90268 -1.67907
upperneck 31.9953 14.6574 3.5581
head 13.3162 7.3651 4.1875
rclavicle 5.16654e-014 -4.05521e-014
rhumerus -59.9765 -16.175 -77.3439
rradius 33.788
rwrist 46.6003
rhand -20.7415 -8.30428
rfingers 7.12502
rthumb 5.62398 -38.2097
lclavicle 5.16654e-014 -4.05521e-014
lhumerus -34.443 -57.8939 126.895
lradius 59.3922
lwrist -13.0582
lhand -11.3039 1.29425
lfingers 7.12502
lthumb 14.7278 30.7511
rfemur -29.1873 -206.421 5.30047
rtibia 37.7511
rfoot -21.4127 -48.1212
rtoes -17.7302
lfemur -8.19448 20.3149 -9.52133
ltibia 25.2696
lfoot -19.5096 32.4144
ltoes 1.4334
549
root 14.4761 18.7464 -15.611 894.954 -8.80017 181.635
lowerback 4.41595 -6.32962 -5.09422
upperback 1.40971 -8.78839 3.46891
thorax 0.313436 -4.52644 6.69516
lowerneck -17.6516 8.62147 -1.72616
upperneck 31.8 14.2902 3.44465
head 13.2091 7.20363 4.06919
rclavicle 1.42088e-013 -3.89618e-014
rhumerus -59.7785 -16.3585 -76.9886
rradius 33.4224
rwrist 46.9112
rhand -21.079 -8.44011
rfingers 7.12502
rthumb 5.29805 -38.3539
lclavicle 1.42088e-013 -3.89618e-014
lhumerus -31.8646 -55.9249 123.881
lradius 57.1668
lwrist -12.7611
lhand -13.6591 1.50216
lfingers 7.12502
lthumb 12.4578 31.1109
rfemur -28.9656 -207.895 5.755
rtibia 37.6552
rfoot -22.2663 -47.2102
rtoes -19.8179
lfemur -9.44044 19.6557 -9.54069
ltibia 25.4201
lfoot -18.6341 31.862
ltoes 1.53531
